<?xml version="1.0" encoding="utf-8"?>
<!-- Generator: Adobe Illustrator 25.1.0, SVG Export Plug-In . SVG Version: 6.00 Build 0)  -->
<svg version="1.0" id="Layer_1" xmlns="http://www.w3.org/2000/svg" xmlns:xlink="http://www.w3.org/1999/xlink" x="0px" y="0px"
	 viewBox="0 0 280 300" enable-background="new 0 0 280 300" xml:space="preserve">
<g>
</g>
<g id="surface1">
	<path fill-rule="evenodd" clip-rule="evenodd" d="M151.28,55.81v0.4c0,0.93,1.82,3,2.79,3h1.8c1.51,0,3-1.82,3-3.39v-0.8
		c0-0.62-0.37-1.15-0.6-1.59C154.94,53.41,151.28,50.74,151.28,55.81z"/>
	<path fill-rule="evenodd" clip-rule="evenodd" d="M91.39,63.78c0,1.17-0.3,3.39,1.4,3.39h1c0.57,0,1.6-0.92,1.6-1.79v-0.8
		c0-0.54-1.44-1.79-1.8-1.79C92.54,62.79,92.14,63.52,91.39,63.78z"/>
	<path fill-rule="evenodd" clip-rule="evenodd" d="M85.6,68.37c0.48,0.91,0.82,2,2.2,2h0.4c0.68,0,1.8-1.06,1.8-2v-0.2
		c0-1-0.72-2-1.8-2h-0.6C86.22,66.17,85.86,67.23,85.6,68.37z"/>
	<path fill-rule="evenodd" clip-rule="evenodd" d="M128.12,67.98c0.69,1.3,1.25,3.39,3.19,3.39h1.2c2.68,0,1.51-6.18-1.79-6.18h-0.2
		C128.84,65.18,128.45,66.59,128.12,67.98z"/>
	<path fill-rule="evenodd" clip-rule="evenodd" d="M101.17,71.17c0,0.67,0.9,1.59,1.8,1.59c1.23,0,1.79-0.95,1.79-2.2
		c0-0.48-0.91-1.4-1.4-1.4h-0.8C101.74,69.17,101.17,70.28,101.17,71.17z"/>
	<path fill-rule="evenodd" clip-rule="evenodd" d="M101.17,71.17c0-0.89,0.57-2,1.4-2h0.8c0.48,0,1.4,0.91,1.4,1.4
		c0,1.25-0.57,2.2-1.79,2.2C102.07,72.76,101.17,71.84,101.17,71.17z M98.98,61.59c0,1.96-0.53,3.38-0.78,5.21
		c-0.13,0.98-0.33,4.96-1.22,4.96h-0.2c-0.87,0-0.73-0.4-1.6-0.4h-1.2c-2.57,0-13.37,8.19-13.37,9.58v0.2
		c0,0.27,4.99,6.93,5.58,7.78c0.53,0.77,5.67,7.59,6,7.59c0.36,0,5.39-4.2,5.39-4.39c0-0.59-4.99-7.19-4.99-7.19
		c0-1.03,3.56-2.72,4.43-3.35c0.49-0.36,4.59-3.23,4.75-3.23c0.99,0,3.96,6.55,5.71,6.99l1.23-22.09l-0.75-0.47
		c-1.76,0-5.39-1.6-7.78-1.6h-0.4C99.45,61.19,99.14,61.43,98.98,61.59z"/>
	<path fill-rule="evenodd" clip-rule="evenodd" d="M147.69,53.41v23.54c1.18-0.02,9.28-5.11,10.58-5.99c0-1.2,0-2.39,0-3.59
		c0-1.75-0.45-2.49,0.98-2.19c0.78,0.16,5.51,1.15,5.45,1.8l-2.23,14.96c1.21,0.64,3.76,1.32,5.28,1.91
		c1.83,0.71,3.36,1.51,5.04,2.34c1.15,0.57,9.17,5.32,9.25,5.32c0.56,0,3.8-5.51,3.8-5.79c0-1.35-7.72-5.38-9.21-5.96
		c-0.89-0.35-1.78-0.71-2.67-1.13c-1.66-0.77-1.51,0.14-1.5-2.29c0.01-2.52-0.1-4.64,0.4-6.79c2.62,0.61,9.33,4.38,11.54,5.83
		c1.36,0.89,9.82,6.72,9.82,7.74v0.2c0,0.45-3.45,4.15-3.99,5.19c0.33,0.5,4.87,3.99,5.39,3.99h0.8c0.14-0.53,6.41-6.78,6.79-6.78
		c1.23,0,11.14,5.58,11.98,5.58c0.56,0,1.36-0.83,1.6-1.2c-0.42-1.8-4.07-5.39-5.37-6.81c-0.65-0.71-2.34-2.2-3.17-2.82
		c-2.76-2.1-1.41-0.95-4.44-0.95h-0.6c-0.32,0-0.6-0.12-0.6-0.4c0-0.54,1-1.61,1-2.79c0-0.92-7.43-6.42-8.58-7.18
		c-1.55-1.03-3.07-2.04-4.68-3.11c-1.65-1.1-3.54-1.85-5.09-2.89c-2.89-1.95-18.68-8.36-23.15-8.52l-2.22-0.24v1.2
		c0,2.62-2.28,4.79-4.79,4.79h-0.2c-0.93,0-0.62-0.4-2-0.4c-0.88-1.32-2.59-1.87-2.59-4.19v-0.8c0-0.87,0.4-0.73,0.4-1.59v-0.2
		c0-0.46-0.14-0.6-0.6-0.6h-1.6C148.02,52.61,147.69,52.95,147.69,53.41z"/>
	<path fill-rule="evenodd" clip-rule="evenodd" d="M121.73,88.92c0,0.36,1.84,2.16,2.22,2.42l1.48-1.33l0.3-0.06l-2.39-2.62
		C122.87,87.64,121.73,88.26,121.73,88.92z"/>
	<path fill-rule="evenodd" clip-rule="evenodd" d="M111.36,57.01c0.03,1.5,10.72,15.56,12.33,17.99
		c1.46,2.21,11.75,16.8,12.92,17.53l0.3-4.4v-4.19c0-0.94-14.64-19.82-14.77-21.35c0.36-0.08,1.95-0.6,1.99-0.6h4.6
		c0.45,0,0.44,0.16,0.79,0.4c2.82,0,7.06,3.9,7.59,6.18c0.98-0.26,0.57-1.34,0.59-2.6c0.01-1.27,0.4-1.52,0.4-2.79v-8.98
		c0-0.62-0.36-0.56-0.79-0.79l0.02,0.2L111.36,57.01z"/>
	<path fill-rule="evenodd" clip-rule="evenodd" d="M218.76,96.31v0.4c0,1.24,0.96,2,2.2,2c1.28,0,2-0.85,2-2.2v-0.2
		c0-0.91-0.92-1.8-1.6-1.8h-1C219.69,94.51,218.76,95.4,218.76,96.31z"/>
	<path fill-rule="evenodd" clip-rule="evenodd" d="M121.73,88.92c0-0.66,1.14-1.29,1.6-1.59l2.39,2.62l-0.3,0.06l-1.48,1.33
		C123.58,91.09,121.73,89.29,121.73,88.92z M112.25,79.96c-0.18,0.61,12.69,20.28,13.67,20.94c0.53-0.39,5.19-8.06,5.19-8.78
		c0-1.04-8.51-10.98-8.98-12.77c-1.74,0.04-1.93,2.8-2.8,2.8c-0.49,0-2.64-2.55-2.52-3.51c0.11-0.96,1.15-4.3,1.53-4.87
		c-0.64-2.76-3.35-4.67-3.8-6.59l-0.69-0.01L112.25,79.96z"/>
	<path fill-rule="evenodd" clip-rule="evenodd" d="M221.96,101.89v0.6c0,0.49,0.91,1.4,1.4,1.4h1.4c0.66,0,1.4-0.75,1.4-1.59v-0.6
		c0-1.1-0.9-1.79-2-1.79C222.91,99.9,221.96,100.65,221.96,101.89z"/>
	<path fill-rule="evenodd" clip-rule="evenodd" d="M127.12,105.89v0.4c0,0.61,0.58,0.8,1.2,0.8h0.2c1.1,0,1.75-2.24,2.69-2.87
		l2.1,2.87c-0.22,0.4-2.2,4.11-2.2,4.19c0,0.33,0.29,1,0.6,1c1.45,0,2.07-2.13,2.67-3.32c0.32-0.65,1.93-3.81,1.93-4.26
		c0-1.06-4.19-4.49-4.19-4.99c0-1.05,2.2-3.85,2.2-4.79c0-0.45-0.07-0.23-0.2-0.79h-0.6c-0.98,0-2.78,4.52-3.43,5.55
		C129.86,100.03,127.12,105.87,127.12,105.89z"/>
	<path fill-rule="evenodd" clip-rule="evenodd" d="M216.57,112.27c0,0.35,1.46,1.4,1.79,1.4c0.77,0,2-1.08,2-1.79
		c0-0.78-0.76-1.8-1.4-1.8h-0.8C216.89,110.08,216.57,111.02,216.57,112.27z"/>
	<path fill-rule="evenodd" clip-rule="evenodd" d="M161.84,111.05c0.49,0.99,3.29,4.02,4.42,4.02c0.37,0,1.79-1.75,1.79-1.79
		c0-0.55-3.78-3.59-4.53-4.11L161.84,111.05z"/>
	<path fill-rule="evenodd" clip-rule="evenodd" d="M216.57,112.27c0-1.25,0.33-2.2,1.59-2.2h0.8c0.64,0,1.4,1.02,1.4,1.8
		c0,0.71-1.23,1.79-2,1.79C218.03,113.67,216.57,112.62,216.57,112.27z M192.81,100.9v0.6c0,0.52,3.95,5.19,4.39,5.19
		c0.72,0,6.15-4.85,7.59-5.19c0.68,1.28,6.18,9.09,6.18,9.38c0,0.71-6.53,3.89-6.98,5.59l22.16,0.99c0.57-1.07,1.2-3.77,1.37-5.21
		c0.14-1.13,0.27-1.44,0.47-2.73c0.27-1.78,0.61-1.62-1.16-1.92c-1.84-0.31-3.89-0.59-5.71-0.87c-4.01-0.62-3.35,0.34-3.35-2.84
		v-1.4c0-2.29-8.52-12.96-9.58-12.96c-0.95,0-6.69,4.78-7.75,5.62C199.55,95.85,193.23,100.78,192.81,100.9z"/>
	<path fill-rule="evenodd" clip-rule="evenodd" d="M163.52,109.16c0.75,0.53,4.53,3.56,4.53,4.11c0,0.05-1.42,1.79-1.79,1.79
		c-1.13,0-3.93-3.02-4.42-4.02L163.52,109.16z M156.87,111.07v1.2c0,1.29,6.39,5.28,6.39,6.18c0,0.68-5.16,4.95-5.99,6.18
		c0.35,0.52,3.03,3.6,3.6,3.6c0.98,0,10.34-9.38,10.98-9.38h0.2c0.87,0,3.1,3.39,3.8,3.39c0.36,0,2.99-2.11,2.99-2.59v-0.2
		c0-1.1-5.5-7.19-6.59-7.98c-1.39-1.02-6.94-5.99-8.58-5.99h-0.2C161.26,105.49,156.87,109.62,156.87,111.07z"/>
	<path fill-rule="evenodd" clip-rule="evenodd" d="M70.23,82.54v0.2c0,1.09,0.4,1.1,0.4,2.19v1.2c-1.27-0.03-2.69-1.2-3.39-1.2
		c-0.65,0-6.6,7.87-7.42,8.95c-2.25,2.96-4.61,6.73-6.42,10.14c-0.97,1.83-1.79,3.63-2.77,5.42c-0.97,1.79-1.51,4.03-2.42,5.96
		c-0.73,1.54-3.73,11.04-3.73,12.83c2.05,0.48,2.59-0.06,4.14,1.24c0.85,0.72,1.85,2.06,1.85,3.55v0.4c0,2.28-2.6,4.79-4.79,4.79
		c-2.04,0-3-2.71-3,2.26L60.64,141h6.39c-0.02-1-2.83-5.48-3.48-6.5c-0.67-1.06-1.13-2.11-1.79-3.19c-1.1-1.83-1.49-1.08-3.71-1.08
		h-2.2c-1,0-0.18-2.35,0.12-3.08c0.53-1.31,0.17-2.57,1.28-3.31c2.73,0.64,7.18,1.21,10,1.57c0.73,0.1,4.62,0.82,5.1,0.55
		c0.09-0.06,1.55-3.89,1.63-4.16c1.72-5.57,5.74-10.22,8.22-14.93c-0.43-0.82-5-3.79-6.19-3.79c-0.54,0-3.79,5.41-4.31,6.26
		c-0.58,0.95-2.97,6.91-3.67,6.91h-2.39c-0.65,0-1.9,0.02-2.68-0.12c-0.68-0.12-2.91,0.2-2.91-0.48c0-1.13,5.16-10.22,5.99-11.38
		c1.19-1.69,2.45-3.35,3.59-4.99c0.6-0.87,3.85-4.24,3.99-4.78c1.74,0.04,4.66,4.19,5.39,4.19c0.65,0,4.4-4.95,4.6-5.79
		c-0.54-0.14-6.99-6.84-6.99-7.18c0-0.41,5.34-10.84,5.99-12.17c-0.26-0.39-1.03-1.4-1.6-1.4C79.83,72.16,70.23,81.11,70.23,82.54z"
		/>
	<path fill-rule="evenodd" clip-rule="evenodd" d="M200.03,134.67l-1.63-1.24v-0.8c1.06-0.28,1.61-1.8,2.39-1.8
		c0.69,0,1.33,1.1,1.65,1.66L200.03,134.67z M188.82,135.22c0.27,0.41,8.12,4.99,8.58,4.99h0.4c0.44,0,5.46-4.04,6.35-4.63
		c0.64-0.42,6.23-4.72,6.23-4.95c0-0.77-2.29-1.27-3-2.59c0.54-0.36,2.71-2.39,3-2.39c1.96,0,5.37,2.16,6.97,0.99
		c0.81-0.58,4.5-3.39,5.2-3.58l0.01-0.49l-13.38-1.31h-0.2C208.67,121.25,189.33,134.45,188.82,135.22z"/>
	<path fill-rule="evenodd" clip-rule="evenodd" d="M99.57,125.84c0,0.44,1.56,1.6,1.8,1.6c0.69,0,3.99-3.77,3.99-4.19v-0.2
		c0-0.58-1.53-1.55-2-1.8C102.81,122.08,99.57,125.03,99.57,125.84z"/>
	<path fill-rule="evenodd" clip-rule="evenodd" d="M99.57,125.84c0-0.81,3.24-3.76,3.8-4.59c0.47,0.25,2,1.21,2,1.8v0.2
		c0,0.42-3.31,4.19-3.99,4.19C101.13,127.44,99.57,126.28,99.57,125.84z M101.77,132.62c1.42,0,2.71-1.91,3.53-2.85
		c0.56-0.63,2.91-3.02,3.05-3.53c1.83,0.03,4.61,5.04,6.39,5.99c0.49-0.33,3.79-3.02,3.79-3.39c0-1.21-9.38-10.65-9.38-11.18
		c0-1.04,3.6-3.3,3.6-3.8c0-0.96-2.1-3.31-3-3.39c-0.16,0.44-5.06,3.75-5.94,4.64c-2.01,2.03-3.16,3.41-4.99,5.59
		c-0.79,0.95-1.46,1.96-2.17,3.01c-1.12,1.67-1.23,1.78-0.46,3.69C96.77,128.82,99.99,132.62,101.77,132.62z"/>
	<path fill-rule="evenodd" clip-rule="evenodd" d="M202.44,132.48c-0.32-0.56-0.96-1.66-1.65-1.66c-0.78,0-1.34,1.52-2.39,1.8v0.8
		l1.63,1.24L202.44,132.48z"/>
	<path fill-rule="evenodd" clip-rule="evenodd" d="M42.88,134.62v0.99c0,0.7,1.73,1.4,2.59,1.4h0.6c1.44,0,3.39-1.84,3.39-3.19v-1.2
		c0-1.13-1.62-3-3-3h-2C43.5,129.63,42.88,133.71,42.88,134.62z"/>
	<path fill-rule="evenodd" clip-rule="evenodd" d="M74.62,141.6l8.78-0.6H84c2.02,0,3.47,0.12,5.4,0.19
		c0.89,0.03,4.78,1.05,4.78-0.19c0-0.77-2.07-5.77-2.39-7.18c-1.47,0-2.43,0.11-3.59,0.19c-2.19,0.18-2.55,0.31-2.08-1.27
		c0.56-1.86,1.3-4.13,2.11-5.68c1.94-3.72,3.31-6.5,5.76-9.8c1.7-2.3,5.38-6.12,7.71-7.87c1.37-1.02,8.06-6.3,9.46-6.3
		c1.27,0,12.4,20.15,14.17,20.15c0.1,0,2.81-1.44,3.39-1.6c0.66-0.19,3.6-0.64,3.6-1.39c0-0.23-8.7-13.86-9.58-15.17
		c-1.08-1.61-9.27-14.97-9.98-14.97h-0.6c-0.19,0.52-2.95,1.58-3.66,1.93c-1.25,0.62-2.41,1.31-3.57,2.02
		c-2.6,1.62-4.27,2.97-6.63,4.75c-4.64,3.5-7.43,7.1-11.15,11.4c-3.32,3.85-5.96,9.34-8.27,14.28
		C78.36,125.61,72.55,141.78,74.62,141.6z"/>
	<path fill-rule="evenodd" clip-rule="evenodd" d="M147.09,84.14l0.8,7.39l0.05,9.18l-0.25,3.39c1.71,0,7.14-2.03,7.69-2.98
		l-0.31-5.4c2.46,0.06,8.15,2.88,10.21,3.77c2.68,1.15,6.16,3.82,8.41,5.56c2.7,2.09,4.79,4.4,6.98,6.99
		c0.84,0.98,5.74,7.49,5.74,8.43c0,0.63-19.97,13.66-19.97,14.17c0,0.19,1.41,3.07,1.62,3.56c0.16,0.37,1,3.82,1.37,3.82
		c0.19,0,29.4-19.14,29.95-19.95c-0.75-3.2-6.45-11.8-8.54-14.01c-1.87-1.98-3.31-4.21-5.48-5.9c-2.02-1.58-3.91-3.61-6.11-5.27
		c-4.35-3.26-9.21-5.79-14.42-8.14c-2.6-1.17-5.54-1.96-8.51-2.87C155.07,85.47,147.7,83.9,147.09,84.14z"/>
	<path fill-rule="evenodd" clip-rule="evenodd" d="M218.36,140.4c0,4.14,6.19,2.16,6.19-0.99v-0.4
		C224.55,135.59,218.36,136.82,218.36,140.4z"/>
	<path fill-rule="evenodd" clip-rule="evenodd" d="M182.62,137.61c0.76,1.58,1.49,1.8,3,2.59l0.13,0.16l-2.93,2.23
		c-1.13-0.26-3.97-1.99-4.19-1.99h-0.4c-0.46,0-0.6,0.14-0.6,0.6v0.4c0,0.82,6.74,3.99,7.19,3.99h0.6c1.07,0,3.94-4.19,4.79-4.19
		c1.05,0,3.9,2,4.39,2h0.6c0.46,0,0.6-0.14,0.6-0.61v-0.19c0-0.89-4.85-2.84-5.91-3.27c-1.08-0.44-5.55-2.92-6.27-2.92
		C182.85,136.41,182.87,137.09,182.62,137.61z"/>
	<path fill-rule="evenodd" clip-rule="evenodd" d="M197.4,145.19c0.16,0.62,0.39,0.8,1.2,0.8h6.98c1.13,0,18.8-13.65,21.36-15.36
		c1.25,2.6,0.87,7.4-0.2,9.78c-0.78,1.73-1.17,2.07-2.45,3.34c-0.51,0.51-0.81,0.95-1.48,1.32c-0.85,0.46-1.44,0.4-1.47,1.53
		l3.4,0.05l11.38-0.25l0.08-0.81l-0.65-6.8l-0.34-0.6l-2.68-17.74v-0.6c-1.62,0.04-15.15,10.89-17.61,12.53
		c-2.92,1.95-5.88,4.34-8.7,6.47C205,139.77,198.16,144.92,197.4,145.19z"/>
	<path fill-rule="evenodd" clip-rule="evenodd" d="M88.99,157.96c-0.13-0.35-3.35-2.2-3.8-2.2h-0.6c-0.38,0-0.79,0.36-0.79,0.6
		c0,1.06,4.6,2.86,5.72,3.46c0.71,0.38,5.97,3.12,6.25,3.12h0.2c0.57,0,1-0.68,1-1.19c0-1.38-2.8-2.32-2.8-2.8
		c0-0.52,2.39-2.19,3-2.19c0.49,0,3.31,2,3.8,2h0.4c0.47,0,0.8-0.33,0.8-0.8c0-1.07-6.36-3.8-7.59-4.39
		C92.94,154.44,90.65,157.93,88.99,157.96z"/>
	<path fill-rule="evenodd" clip-rule="evenodd" d="M55.05,159.76c0,1.06,1.33,1.99,2.39,1.99c1.47,0,3.8-1.58,3.8-2.99v-1
		c0-1.17-1.08-1.8-2.2-1.8C56.84,155.97,55.05,157.55,55.05,159.76z"/>
	<path fill-rule="evenodd" clip-rule="evenodd" d="M124.73,149.78c0,8.68,6.69,15.36,15.37,15.36c8.27,0,14.99-6.91,14.99-15.17
		c0-8.18-6.92-15.17-14.99-15.17C131.78,134.81,124.73,141.55,124.73,149.78z"/>
	<path fill-rule="evenodd" clip-rule="evenodd" d="M77.22,166.54c0,0.39,1.24,1.8,1.4,1.8c0.78,0,1.34-1.51,2.39-1.8v-0.6
		c0-0.48-0.91-1.4-1.4-1.4C79.26,164.55,77.22,166.3,77.22,166.54z"/>
	<path fill-rule="evenodd" clip-rule="evenodd" d="M124.73,149.78c0-8.23,7.05-14.97,15.37-14.97c8.07,0,14.99,6.99,14.99,15.17
		c0,8.26-6.72,15.17-14.99,15.17C131.42,165.15,124.73,158.46,124.73,149.78z M121.93,149.38v1.4c0,9.55,8.47,17.36,18.17,17.36h0.8
		c1.26,0,4.32-0.88,5.39-1.2c1.59-0.47,3.14-1.51,4.36-2.42c3.28-2.46,3.89-3.87,5.91-7.47c1.51-2.71,1.76-7.85,0.91-11.25
		c-0.92-3.72-2.49-6.18-4.84-8.53C141.47,126.09,121.93,133.94,121.93,149.38z"/>
	<path fill-rule="evenodd" clip-rule="evenodd" d="M230.74,164.55v1.4c0,0.99,1.03,2.01,1.71,2.48c1.43,0.98,1.83,0.51,3.48,0.51
		c0.95-1.41,1.4-4.12,1.4-6.38c-1.34-0.36-1.26-1.65-3.95-0.96C232.33,161.86,230.74,163.21,230.74,164.55z"/>
	<path fill-rule="evenodd" clip-rule="evenodd" d="M121.93,149.38c0-15.44,19.54-23.3,30.7-12.13c2.35,2.35,3.91,4.81,4.84,8.53
		c0.85,3.4,0.6,8.54-0.91,11.25c-2.02,3.6-2.63,5.02-5.91,7.47c-1.22,0.91-2.77,1.95-4.36,2.42c-1.07,0.32-4.13,1.2-5.39,1.2h-0.8
		c-9.7,0-18.17-7.81-18.17-17.36V149.38z M137.9,129.23l-2.19-3.79c-0.96,0.26-1,3.15-1,4.39c-1.87-0.05-1.91-3.05-3.59-3.2v1.6
		c0,0.82,0.51,2.8-0.2,2.8c-0.53,0-3.12-2.51-3.45-2.51c-1.09,0.03,1.36,4.1-0.15,4.1c-0.47,0-2.71-1.59-2.99-1.59
		c-1.41,0,0.94,3.43,0.94,4.02c-0.01,0.85-3.19-1-4.33-1.03l-0.22,0.14l2.22,3.86h-0.79c-0.82,0-2.51-0.79-3.8-0.79l-0.18,0.14
		l2.98,3.85c-1.38,0.64-4.35-1.23-4.28,0.67l2.88,2.72c-1.23,0.59-3.88,0.2-4.16,1.33l3.56,1.66c-0.36,1.36-3.39,1.08-4.2,2.63
		l4.01,1.16c-0.08,0.9-2.35,2.2-3.19,2.39c0.03,1.66,2.4,0.83,4.08,1.7l-3.09,2.49c0.12,0.44,0.05,0.6,0.6,0.6h3.8
		c-0.46,1.71-2.55,1.92-2.6,3.95l3.98-0.84l0.19,0.18l-1.95,3.42l-0.23-0.13c0.15,1.73,2.53-0.56,4.39-0.6
		c-0.11,1.4-1.2,2.8-1.2,3.99c0,1.17,3.11-1.37,3.53-1.48c1.06-0.27-0.27,3.63-0.33,4.47l0.15,0.18l3.85-2.97v3.99
		c0,0.76-0.06,0.07,0.2,0.6l0.2,0.15l2.8-3.35c0.81,1.53,0.29,4.28,1.59,4.39c0.21-0.78,1.7-3.61,2.38-3.78l1.41,4.18
		c1.05-0.09,1.78-3.27,2.12-4.26l2.07,4.06c0.92-0.24,1.17-3.29,1.2-4.4c1.82,0.16,1.66,2.96,3.59,3v-4.2
		c1.06,0.29,2.88,2.39,3.5,2.52c1.25,0.26-0.95-4.31,0.1-4.31c0.71,0,2.64,1.9,3.94,1.95l-1.34-4.54c0.98,0.08,4.19,1.96,4.19,1
		c0-0.71-1.9-2.64-1.99-3.85l4.55,0.83l0.12-0.24l-2.86-3.59l0.18-0.18l3.79,0.23c0.33,0.03,0.6-0.14,0.6-0.39
		c0-0.69-2.64-2.29-3.01-2.81c-1.08-1.53,4.01-0.33,4.01-1.38c0-0.64-2.81-1.8-3.46-2.78l4.05-1.21l-0.03-0.7l-4.17-1.66l-0.07-0.19
		l3.68-1.84c-0.1-1.19-0.66-0.71-1.85-0.95c-0.79-0.16-1.61-0.39-2.34-0.45c0.07-0.84,2.43-2.59,3.19-2.79
		c-0.14-1.67-3.1-0.28-4.61-1.02l2.99-3.21l-0.2-0.33l-4.56,0.79l-0.18-0.11l2.3-4.22l-0.19-0.23l-4.13,1.75
		c-0.01-0.01-0.2-0.37-0.2-0.4c0-0.86,1.36-2.63,1.4-4.19c-1.27,0.3-3,1.9-3.73,2.08c-1.13,0.28,0.54-3.22-0.07-4.48l-3.59,2.8v-4.4
		c-1.74,0.05-2.23,2.63-3.73,2.99l-0.66-4.18c-1.49,0.4-1.52,3.25-2.8,3.59c-0.27-1.17-0.61-3.47-1.65-4.01L137.9,129.23z"/>
	<path fill-rule="evenodd" clip-rule="evenodd" d="M77.22,166.54c0-0.24,2.04-1.99,2.39-1.99c0.48,0,1.4,0.91,1.4,1.4v0.6
		c-1.06,0.28-1.61,1.8-2.39,1.8C78.45,168.34,77.22,166.93,77.22,166.54z M69.03,168.14c0,0.53,2.55,2.07,3,2.18v0.8
		c-1.1,0.3-2.31,2-3,2c-2.16,0-5.11-2.01-6.83-1.04c-0.58,0.33-4.94,3.36-5.15,3.64c0.49,0.66,11.52,2,13.37,2
		c0.15,0,9.36-6.17,10.34-6.83c1.9-1.27,9.25-5.69,10.02-7.14c-1.36-0.36-8.27-4.99-8.58-4.99
		C81.44,158.76,69.03,168.1,69.03,168.14z"/>
	<path fill-rule="evenodd" clip-rule="evenodd" d="M174.84,176.52l2.2,1.79c0.54-0.82,3.59-4.19,3.59-4.79c0-0.62-1.51-1.34-2-1.59
		C177.42,172.99,175.62,175.05,174.84,176.52z"/>
	<path fill-rule="evenodd" clip-rule="evenodd" d="M47.27,178.71c0.39,0,15.8-11.23,17.65-12.49c2.05-1.38,17.23-11.9,17.48-12.85
		c-1.26-0.6-3.75-0.07-5.39-0.2c-2.63-0.19-2.17-0.89-4.27,0.51c-2.05,1.38-4.87,3.19-6.66,4.72c-0.91,0.79-13.17,9.33-13.23,9.33
		h-0.6v-0.8c0-1.09-0.4-1.1-0.4-2.19v-2.8c0-4.3,3.86-7.83,6.83-9.42l-0.65-0.45l-2.79-0.11H43.47c0,1.95,0.48,4.98,0.78,6.8
		c0.38,2.3,0.45,4.41,0.91,6.68C45.49,167.08,46.56,178.71,47.27,178.71z"/>
	<path fill-rule="evenodd" clip-rule="evenodd" d="M58.84,186.89c0.49,1,0.42,1.73,1.91,1.88c0.77,0.07,1.89-0.8,1.89-1.88v-0.2
		c0-0.52-1.24-1.6-1.59-1.6C59.64,185.1,59.33,185.98,58.84,186.89z"/>
	<path fill-rule="evenodd" clip-rule="evenodd" d="M174.84,176.52c0.78-1.48,2.58-3.53,3.79-4.59c0.48,0.25,2,0.98,2,1.59
		c0,0.6-3.05,3.97-3.59,4.79L174.84,176.52z M171.84,173.53c-0.84-0.07-5.61-5.32-6.19-6.18c-0.58,0.28-3.99,3.1-3.99,3.59
		c0,1.22,8.71,9.34,9.79,11.37c-0.37,0.25-3.8,3.38-3.8,3.59c0,0.68,2.24,2.83,2.8,3.19c0.64-0.56,1.45-0.94,2.19-1.4
		c0.85-0.52,1.32-1.14,2.08-1.71c1.41-1.06,2.79-2.15,3.84-3.55c0.96-1.28,6.07-7.48,6.07-8.7c0-2.42-3.97-6.79-6.39-6.79h-0.2
		c-1.21,0-2.66,2.18-3.31,3.08C174.06,170.92,172.08,172.66,171.84,173.53z"/>
	<path fill-rule="evenodd" clip-rule="evenodd" d="M111.15,186.3c0,0.61,4.05,3.99,4.19,3.99c0.74,0,1.8-0.97,1.8-1.59v-0.4
		c0-0.5-3.43-3.59-3.99-3.59h-0.2C112.5,184.7,111.15,186.12,111.15,186.3z"/>
	<path fill-rule="evenodd" clip-rule="evenodd" d="M111.15,186.3c0-0.18,1.34-1.6,1.8-1.6h0.2c0.57,0,3.99,3.09,3.99,3.59v0.4
		c0,0.62-1.06,1.59-1.8,1.59C115.2,190.29,111.15,186.91,111.15,186.3z M106.96,180.91c-0.14-0.5-2.91-3.59-3.39-3.59h-0.2
		c-0.4,0-3,2.1-3,2.39c0,2.71,12.52,14.56,15.17,14.56c2.31,0,6.79-3.82,6.79-6.18v-0.2c0-1.3-2.12-2.61-2.94-3.44
		c-0.54-0.54-2.98-2.83-3.44-3.14c0.63-1.2,6.19-5.5,6.19-5.99c0-0.41-2.97-3.8-3.8-3.8C116.94,171.53,108.76,180.87,106.96,180.91z
		"/>
	<path fill-rule="evenodd" clip-rule="evenodd" d="M52.86,196.67v0.2c0,0.96,0.89,1.99,1.8,1.99c1.19,0,2.39-0.87,2.39-1.79v-1.4
		c-0.91-0.33-1.07-1.41-2.48-1.1C53.55,194.8,52.86,195.58,52.86,196.67z"/>
	<path fill-rule="evenodd" clip-rule="evenodd" d="M56.05,201.46v1c0,2.43,4.12,2.21,4.18-0.19
		C60.29,199.11,56.05,199.65,56.05,201.46z"/>
	<path fill-rule="evenodd" clip-rule="evenodd" d="M144.29,195.27c0,1.13,3.66,3.81,4.39,5.2c-0.3,0.57-2.2,4.18-2.2,4.58
		c0,0.34,0.27,0.74,0.4,1c1.88-0.44,2.87-4.14,3.72-5.86c0.34-0.68,3.06-6.32,3.06-6.51c0-0.4-0.83-0.8-1.4-0.8h-0.2
		c-0.84,0-1.97,2.16-2.39,2.8c-0.48-0.26-2.2-2.04-2.2-2.6v-0.2c0-1.07,2-3.64,2-4.19c0-0.47-0.26-1-0.8-1h-0.2
		C147.67,187.69,144.29,194.66,144.29,195.27z"/>
	<path fill-rule="evenodd" clip-rule="evenodd" d="M58.84,186.89c0.49-0.92,0.79-1.8,2.2-1.8c0.35,0,1.59,1.08,1.59,1.6v0.2
		c0,1.08-1.12,1.95-1.89,1.88C59.26,188.62,59.33,187.9,58.84,186.89z M51.06,190.29v0.6l5.02,0.56l0.59,0.35l4.98,0.68
		c0,1.28-0.4,1.51-0.4,2.79v0.2c0,3.28,8.14,13.96,9.58,13.96c0.65,0,15.09-10.87,15.57-11.77l-4.6-5.39l-7.18,5.19
		c-0.61-0.41-6.39-8.82-6.39-9.38c0-0.99,6.55-3.69,6.99-5.64l-20.16-1.14h-1.6C52.48,181.31,51.06,188.65,51.06,190.29z"/>
	<path fill-rule="evenodd" clip-rule="evenodd" d="M185.82,157.76l2.39,7.58c0.45,0.11,0.46,0.2,1,0.2l0.61,0.07l4.39-0.47
		c0,4.68-6.72,16.06-9.23,18.71c-2.49,2.62-4.37,4.5-6.99,6.98c-0.79,0.75-7.56,5.63-8.33,5.63c-1.19,0-13.25-19.75-14.38-19.75
		c-0.98,0-2.75,1.24-3.61,1.57c-1.17,0.45-3.1,0.51-3.77,1.42c3.34,4.99,6.63,9.98,9.98,14.97c1.06,1.57,9.48,14.76,10.18,14.76
		c2.5,0,11.88-6.88,13.92-8.43c3.81-2.87,8.04-7.56,10.92-11.43c3.1-4.18,6.09-9.02,8.2-14.15c1.01-2.46,2.22-5.7,2.88-8.3
		c0.81-3.14,1.25-6.11,2.01-9.36c-0.36-0.24-0.35-0.4-0.8-0.4c-1.44,0-2.71,0.31-4.6,0.39c-1.5,0.06-3.14,0.2-4.98,0.2
		C192.4,157.96,189.1,157.76,185.82,157.76z"/>
	<path fill-rule="evenodd" clip-rule="evenodd" d="M155.48,210.04c0,0.51,1.62,2.07,2.09,2.51l1.7-1.71l-2.39-2.39
		C156.68,208.62,155.48,209.86,155.48,210.04z"/>
	<path fill-rule="evenodd" clip-rule="evenodd" d="M219.36,168.54l4.99-0.2c1.06-0.06,0.12,2.21-0.08,2.92
		c-0.31,1.13-0.47,2.37-0.72,3.47c-0.36,0.09-0.6,0.23-0.78,0.1l-13.79-2.1h-0.6c-0.62,0-1.99,4.34-2.24,5.15
		c-0.32,1.07-1.79,4.11-2.39,5.19c-0.78,1.37-5.33,8.75-5.35,9.62c1.15,0.27,5.72,3.39,5.99,3.39c0.71,0,3.94-5.49,4.4-6.38
		c0.47-0.93,1.47-2.77,1.75-3.64c0.22-0.68,1.11-3.55,1.84-3.55l5-0.08l2.98,0.48c-0.07,3.34-11.73,21.55-13.57,21.55
		c-1.1,0-4.16-4.07-5.59-4.19c-0.3,1.11-3.79,4.83-3.79,5.59c0,0.98,6.98,6.7,6.98,7.38c0,1.15-5.59,10.58-5.59,12.17
		c0,0.44,1.02,1.39,1.2,1.39c2.13,0,9.54-8.31,10.78-10.17c0-0.7-0.52-3.57-0.25-3.84c0.41-0.41,2.34,1.04,3.05,1.04
		c1.66,0,11.03-14.29,12.27-16.67c1.59-3.03,3.56-6.29,4.73-9.64c0.73-2.11,3.56-8.73,3.56-11c0.38-0.57,1.6-4.94,1.6-5.79
		c0-0.45-0.16-0.44-0.4-0.8c-3.36,0-5.59-1.36-5.59-4.59v-0.6c0-1.59,1.28-3.01,2.31-3.68c1.99-1.3,3.35-0.11,4.68-0.11
		c0.24,0,0.6-0.41,0.6-0.79v-1.8c0-0.46-0.14-0.6-0.6-0.6h-23.76C212.99,158.8,218.64,168.05,219.36,168.54z"/>
	<path fill-rule="evenodd" clip-rule="evenodd" d="M79.81,176.92c1.29,2.43,2.44,4.98,3.73,7.45c1.02,1.93,3.15,5,4.55,6.63
		c4.12,4.8,6.51,7.18,11.29,11.26c3.13,2.67,9.88,6.8,14.09,8.47c2.77,1.09,5.37,1.88,8.19,2.99c1.32,0.52,7.73,2.11,9.27,2.11h0.61
		l-0.61-9.17c-0.23-3.05,0.64-7.34,0.41-10c-0.12-1.46-2.63-0.26-3.53,0.1c-0.75,0.3-3.44,1.27-4.16,1.32l0.28,5.38v0.6h-0.6
		c-1.75,0-8.27-3.22-9.78-3.99c-3.36-1.72-5.42-3.5-8.31-5.67c-1.96-1.46-5.34-5-6.79-6.98c-0.78-1.07-5.47-7.63-5.47-8.5
		c0-1.09,20.16-12.97,20.16-14.17c0-0.04-1.37-3-1.56-3.44c-0.3-0.65-1.03-3.74-1.44-3.74C109.39,157.57,83.41,175.02,79.81,176.92z
		"/>
	<path fill-rule="evenodd" clip-rule="evenodd" d="M176.43,228.4c0-0.96,0.63-1.61,1.6-1.61c1.03,0,2,0.51,2,1.41v0.59
		c0,0.57-0.75,0.9-1,1.6h-1C177.23,230.39,176.43,229.39,176.43,228.4z M183.23,207.25c0,0.36,4.57,6.22,5.19,7.38
		c-0.34,0.51-8.78,6.39-9.18,6.39h-0.6c-0.31-1.36-3.93-6.69-5.17-6.79l-1.01,21.35l0.39,1h0.8c0.03,0,3.21,0.91,3.75,1.04
		c1.26,0.31,2.9,0.44,4.23,0.74l0.62-0.18l1.58-10.58c2.24,0,3.3,0.99,5.44-0.35c1.48-0.92,2.79-1.6,4.19-2.6
		c0.9-0.64,7.15-5.86,7.15-6.42c0-0.53-5.03-6.7-5.74-7.64c-0.78-1.03-5.7-7.19-5.84-7.73
		C187.94,202.88,183.23,207.03,183.23,207.25z"/>
	<path fill-rule="evenodd" clip-rule="evenodd" d="M176.43,228.4c0,0.99,0.79,1.99,1.6,1.99h1c0.25-0.7,1-1.03,1-1.6v-0.59
		c0-0.9-0.96-1.41-2-1.41C177.06,226.79,176.43,227.43,176.43,228.4z"/>
	<path fill-rule="evenodd" clip-rule="evenodd" d="M155.48,210.04c0-0.18,1.21-1.42,1.4-1.59l2.39,2.39l-1.7,1.71
		C157.09,212.11,155.48,210.55,155.48,210.04z M149.68,207.85c0,0.49,4.26,5.58,4.87,6.5c0.78,1.15,4.08,6.03,5.11,6.26l1.84-2.96
		c0.85,0.18,2.75,2.37,2.75,2.96v0.2c0,1.65-1.2,3.61-1.2,5.59v0.39c0,0.64,3.48,4.64,3.79,5.79c1.03-0.69,1.03-4.82,1.32-6.46
		c0.26-1.48,0.68-5.58,0.68-6.91c0-0.31-13.37-19.81-14.17-20.35c-0.48,0.72-4.99,8.53-4.99,8.78V207.85z"/>
	<path fill-rule="evenodd" clip-rule="evenodd" d="M191.21,230.79c0,1.12,0.62,2.2,1.8,2.2h0.79c1.1,0,1.8-1.05,1.8-2
		c0-0.95-0.7-2-1.8-2h-0.4C192.17,228.99,191.21,229.7,191.21,230.79z"/>
	<path fill-rule="evenodd" clip-rule="evenodd" d="M147.29,231.39c0,1.54,1.83,3.39,3.59,3.39h0.2c0.85,0,1.99-1.53,1.99-2.39
		c0-1.58-1.55-3.79-3.19-3.79h-1c-0.77,0-1.59,1.1-1.59,2V231.39z"/>
	<path fill-rule="evenodd" clip-rule="evenodd" d="M187.41,232.19c-1.86,0-2.22,3.99,0.2,3.99h0.79c1.08,0,1.8-0.99,1.8-2v-0.2
		c0-0.48-1.02-1.79-1.59-1.79H187.41z"/>
	<g>
		<defs>
			<rect id="SVGID_1_" x="61.47" y="206.28" width="69.72" height="41.11"/>
		</defs>
		<clipPath id="SVGID_2_">
			<use xlink:href="#SVGID_1_"  overflow="visible"/>
		</clipPath>
		<g clip-path="url(#SVGID_2_)">
			<path fill-rule="evenodd" clip-rule="evenodd" d="M62.04,209.05c0,1.04,8.7,10.57,10.18,10.57h1c0.82,0,2.79-0.51,2.79,0.2
				c0,0.71-1.2,2.12-1.2,2.99c0,0.49,7.83,6.55,8.84,7.32c1.95,1.49,7.72,5.41,9.9,6.27c3.48,1.37,6.89,3.63,11.07,5.1
				c2.47,0.87,9.66,3.65,12.32,3.65c0.36,0.24,0.35,0.4,0.79,0.4c0.82,0,0.5-2.66,1.44-3.95c0.6-0.83,1.84-2.03,3.16-2.03h1.2
				c2.11,0,4.39,2.33,4.39,4.39v0.79c0,1.24-0.6,1.51-0.6,2c0,0.24,0.41,0.6,0.8,0.6h1.2c0.61,0,0.81-0.19,1.2-0.4l0.35-23.34
				l0.06-0.6c-1.36,0.03-9.07,4.89-10.78,5.78c0,1.2-0.01,2.4,0,3.6c0,1.55,0.4,2.45-0.8,2.23c-1.55-0.28-4.37-1.4-5.59-1.43
				l2.31-15.18c-0.39-0.68-4.09-1.88-5.23-2.27c-1.07-0.36-3.93-1.83-4.96-2.42c-1.1-0.64-8.99-5.47-9.3-5.47
				c-0.3,0-3.6,5.24-3.6,5.99c0,1.15,10.79,7.2,12.98,7.38c0.3,1.27,0,2.87,0,4.59c0,1.04,0.43,4.19-0.6,4.19
				c-0.82,0-10.2-5.35-11.23-6.13c-1.75-1.32-3.24-2.13-4.99-3.59c-0.64-0.53-4.41-3.77-4.74-3.85v-1c0.46-0.16,4.19-4.32,4.19-4.79
				c0-0.17-5.13-4.18-5.59-4.18c-0.63,0-6.65,6.97-7.59,6.97c-0.28,0-11.25-5.99-11.78-5.99c-0.4,0-1.6,0.99-1.6,1.4V209.05z"/>
		</g>
	</g>
	<path fill-rule="evenodd" clip-rule="evenodd" d="M149.74,223.95c1.25,1.64,9.27,12.28,9.53,13.23c-0.23,0.11-3.22,0.8-3.59,0.8
		h-2.39c-3.44,0-8.56-3.88-9.19-6.59c-0.56,0.05-0.8,0-0.8,0.6v12.96c0,0.71,0.1,1.6,0.8,1.6h0.2c1.02,0,4.24-1,5.59-1h1.4v-0.4h1.2
		c0.82,0,3.86-0.44,4.53-0.66c0.89-0.31,3.42-0.33,4.61-0.58c0.44-0.09,4.23-0.75,4.43-0.75c0.86,0,4-0.22,4-0.99v-0.2
		c0-0.23-11.6-15.77-12.78-17.36c-1.7-2.3-11.73-16.51-12.98-17.17c-0.36,1.54-0.16,3.75-0.19,5.6c-0.03,2.65-0.76,2.3,0.79,4.38
		C146.52,219.6,148.07,221.75,149.74,223.95z"/>
	<g>
		<defs>
			<rect id="SVGID_3_" x="118.12" y="239.69" width="8.72" height="7.7"/>
		</defs>
		<clipPath id="SVGID_4_">
			<use xlink:href="#SVGID_3_"  overflow="visible"/>
		</clipPath>
		<g clip-path="url(#SVGID_4_)">
			<path fill-rule="evenodd" clip-rule="evenodd" d="M119.34,244.95c0,1.61,1.03,1.48,2.38,1.61c1.13,0.12,1.89,0.58,3.4,0.58h0.2
				c0.66,0,1.4-1.37,1.4-1.79v-2.2c0-1.28-2.08-2.59-3.8-2.59c-1.83,0-3.59,1.5-3.59,3.19V244.95z"/>
		</g>
	</g>
</g>
</svg>
